<?xml version="1.0" standalone="no"?>
<!DOCTYPE svg PUBLIC "-//W3C//DTD SVG 20010904//EN"
 "http://www.w3.org/TR/2001/REC-SVG-20010904/DTD/svg10.dtd">
<svg version="1.0" xmlns="http://www.w3.org/2000/svg"
 width="500.000000pt" height="500.000000pt" viewBox="0 0 500.000000 500.000000"
 preserveAspectRatio="xMidYMid meet">
<metadata>
Created by potrace 1.14, written by Peter Selinger 2001-2017
</metadata>
<g transform="translate(0.000000,500.000000) scale(0.100000,-0.100000)"
fill="#000000" stroke="none">
<path d="M2979 3996 c-2 -3 -25 -7 -51 -10 -26 -3 -58 -8 -70 -11 -13 -2 -36
-8 -53 -11 -16 -4 -59 -8 -95 -9 -36 -2 -67 -4 -70 -4 -3 -1 -44 -4 -93 -6
-114 -6 -245 -37 -332 -79 -38 -19 -106 -51 -150 -72 -83 -39 -142 -76 -185
-114 -14 -13 -45 -32 -70 -42 -134 -59 -251 -120 -300 -157 -79 -58 -80 -59
-171 -141 -134 -120 -168 -157 -215 -232 -15 -24 -50 -72 -79 -108 -49 -63
-72 -96 -105 -151 -30 -52 -79 -124 -98 -145 -38 -41 -120 -160 -147 -214 -31
-61 -79 -241 -91 -340 -18 -148 -6 -252 46 -380 27 -67 27 -71 1 -190 -30
-135 -30 -328 0 -376 20 -33 72 -73 132 -104 27 -13 123 -17 247 -9 41 3 68
-2 109 -19 94 -41 157 -49 231 -28 140 38 224 81 262 132 21 27 31 95 19 127
-6 16 -6 28 1 35 8 8 35 -10 94 -62 69 -60 98 -78 176 -108 117 -45 150 -55
213 -64 28 -3 59 -9 70 -11 22 -5 156 -11 385 -18 202 -6 358 -14 405 -20 71
-10 129 -16 188 -20 31 -2 61 -6 66 -9 35 -22 540 -25 632 -5 22 5 64 11 92
14 69 6 169 37 202 63 14 11 59 61 98 111 110 138 194 307 203 410 3 31 9 73
15 93 10 37 -1 110 -21 149 -6 10 -11 44 -11 76 -2 156 -71 257 -173 256 -23
-1 -77 -16 -121 -35 -120 -51 -128 -71 -134 -355 -1 -17 -9 -24 -43 -31 -44
-9 -68 -1 -68 23 0 22 -59 94 -89 110 -21 10 -45 13 -76 10 -42 -5 -47 -3 -75
29 -52 59 -125 68 -197 26 -43 -25 -47 -25 -86 4 -69 52 -156 48 -230 -8 -19
-15 -41 -26 -49 -26 -19 0 -54 65 -63 117 -4 24 -11 46 -17 49 -13 8 -39 70
-45 107 -3 19 0 27 10 27 8 0 26 9 41 21 25 20 28 20 51 5 79 -52 183 28 156
121 -7 22 -5 46 5 79 8 26 14 69 14 96 0 30 5 50 13 52 82 26 105 40 128 77
13 22 36 52 50 67 45 48 59 77 65 143 3 35 7 70 10 77 5 18 87 -26 143 -77 25
-22 64 -47 88 -55 38 -13 48 -13 88 1 45 15 95 62 95 89 0 8 16 30 35 51 70
75 70 140 -4 251 -28 42 -64 91 -80 108 -27 29 -29 36 -28 110 1 57 -4 88 -16
111 -25 47 -70 90 -114 108 -21 9 -47 24 -58 34 -31 28 -112 50 -198 54 -67 3
-84 8 -120 33 -23 16 -50 45 -59 63 -43 85 -126 131 -249 137 -42 2 -78 2 -80
0z"/>
</g>
</svg>
