<?xml version="1.0" standalone="no"?>
<!DOCTYPE svg PUBLIC "-//W3C//DTD SVG 20010904//EN"
 "http://www.w3.org/TR/2001/REC-SVG-20010904/DTD/svg10.dtd">
<svg version="1.0" xmlns="http://www.w3.org/2000/svg"
 width="500.000000pt" height="500.000000pt" viewBox="0 0 500.000000 500.000000"
 preserveAspectRatio="xMidYMid meet">
<metadata>
Created by potrace 1.11, written by Peter Selinger 2001-2013
</metadata>
<g transform="translate(0.000000,500.000000) scale(0.100000,-0.100000)"
fill="#000000" stroke="none">
<path d="M590 4233 c-17 -32 -32 -67 -33 -78 -2 -15 37 -40 206 -130 l207
-110 -301 -5 -301 -5 -19 -24 c-29 -35 -26 -105 6 -136 22 -23 32 -25 115 -25
73 0 93 -3 108 -18 11 -11 28 -65 45 -137 14 -66 47 -210 72 -320 245 -1068
283 -1675 139 -2182 -24 -86 -44 -177 -44 -203 0 -85 -41 -80 607 -80 539 0
571 1 586 18 28 30 21 107 -23 259 -51 180 -68 282 -82 488 -13 203 -1 445 37
741 38 293 92 574 215 1119 22 99 45 203 51 230 16 74 34 85 141 85 81 0 91 2
113 25 35 34 35 106 0 140 l-24 25 -298 0 -298 1 40 21 c94 49 371 201 378
208 9 8 -58 150 -70 150 -3 0 -105 -50 -225 -111 l-218 -110 -34 35 c-68 73
-210 107 -362 88 -101 -13 -166 -40 -216 -89 l-36 -36 -216 112 c-118 61 -220
111 -225 111 -5 0 -24 -26 -41 -57z m905 -202 c39 -17 115 -91 115 -111 0 -6
-79 -10 -215 -10 -118 0 -215 4 -215 8 0 20 77 96 114 113 54 24 148 24 201 0z
m519 -328 c-2 -10 -38 -182 -79 -383 -41 -201 -77 -375 -80 -387 l-5 -23 -454
0 -453 0 -28 143 c-15 78 -52 258 -81 400 -30 142 -54 260 -54 262 0 3 279 5
619 5 585 0 619 -1 615 -17z m-209 -1010 c-4 -27 -17 -118 -30 -203 -52 -342
-60 -438 -60 -785 0 -332 12 -491 49 -672 8 -34 11 -65 8 -68 -3 -3 -176 -5
-385 -5 l-379 0 5 23 c16 62 47 276 58 387 15 173 13 565 -5 740 -8 80 -29
235 -46 345 -18 110 -34 219 -37 243 l-6 42 417 0 417 0 -6 -47z"/>
<path d="M3483 3735 c-233 -60 -431 -187 -529 -340 -63 -100 -104 -268 -104
-432 l0 -63 856 0 857 0 -7 123 c-9 151 -26 230 -73 327 -83 173 -293 318
-560 386 -133 33 -308 33 -440 -1z m433 -119 c161 -44 321 -131 399 -217 69
-77 115 -210 115 -336 l0 -43 -725 0 -725 0 0 33 c2 125 57 280 129 354 99
105 309 204 489 233 84 13 216 3 318 -24z"/>
<path d="M3567 1600 c-268 -45 -533 -216 -625 -403 -49 -100 -82 -258 -82
-399 l0 -48 857 0 856 0 -6 128 c-8 145 -24 218 -71 317 -90 192 -353 359
-636 404 -74 12 -222 12 -293 1z m393 -145 c112 -36 234 -97 304 -151 112 -88
163 -191 173 -352 l6 -92 -724 2 -724 3 3 65 c6 129 45 237 113 314 79 90 255
185 419 227 114 29 314 22 430 -16z"/>
</g>
</svg>
